<mxfile host="app.diagrams.net" modified="2024-02-10T01:23:55.588Z" agent="Mozilla/5.0 (Windows NT 10.0; Win64; x64) AppleWebKit/537.36 (KHTML, like Gecko) Chrome/121.0.0.0 Safari/537.36" etag="EojuaBk9rVHAJE2mKagc" version="23.1.2" type="device">
  <diagram id="C5RBs43oDa-KdzZeNtuy" name="Page-1">
    <mxGraphModel dx="698" dy="1184" grid="1" gridSize="10" guides="1" tooltips="1" connect="1" arrows="1" fold="1" page="1" pageScale="1" pageWidth="827" pageHeight="1169" math="0" shadow="0">
      <root>
        <mxCell id="WIyWlLk6GJQsqaUBKTNV-0" />
        <mxCell id="WIyWlLk6GJQsqaUBKTNV-1" parent="WIyWlLk6GJQsqaUBKTNV-0" />
        <mxCell id="4GM5hG-r4nrvfTbwzaOd-5" style="edgeStyle=orthogonalEdgeStyle;rounded=0;orthogonalLoop=1;jettySize=auto;html=1;exitX=0.5;exitY=1;exitDx=0;exitDy=0;entryX=0.5;entryY=0;entryDx=0;entryDy=0;" edge="1" parent="WIyWlLk6GJQsqaUBKTNV-1" source="WIyWlLk6GJQsqaUBKTNV-3" target="4GM5hG-r4nrvfTbwzaOd-0">
          <mxGeometry relative="1" as="geometry" />
        </mxCell>
        <mxCell id="WIyWlLk6GJQsqaUBKTNV-3" value="start" style="rounded=1;whiteSpace=wrap;html=1;fontSize=12;glass=0;strokeWidth=1;shadow=0;" parent="WIyWlLk6GJQsqaUBKTNV-1" vertex="1">
          <mxGeometry x="165" width="150" height="40" as="geometry" />
        </mxCell>
        <mxCell id="4GM5hG-r4nrvfTbwzaOd-7" style="edgeStyle=orthogonalEdgeStyle;rounded=0;orthogonalLoop=1;jettySize=auto;html=1;exitX=0.5;exitY=1;exitDx=0;exitDy=0;entryX=0.5;entryY=0;entryDx=0;entryDy=0;" edge="1" parent="WIyWlLk6GJQsqaUBKTNV-1" source="4GM5hG-r4nrvfTbwzaOd-0" target="4GM5hG-r4nrvfTbwzaOd-1">
          <mxGeometry relative="1" as="geometry" />
        </mxCell>
        <mxCell id="4GM5hG-r4nrvfTbwzaOd-0" value="num = user value input" style="shape=parallelogram;perimeter=parallelogramPerimeter;whiteSpace=wrap;html=1;fixedSize=1;" vertex="1" parent="WIyWlLk6GJQsqaUBKTNV-1">
          <mxGeometry x="160" y="70" width="160" height="40" as="geometry" />
        </mxCell>
        <mxCell id="4GM5hG-r4nrvfTbwzaOd-6" style="edgeStyle=orthogonalEdgeStyle;rounded=0;orthogonalLoop=1;jettySize=auto;html=1;exitX=0.5;exitY=1;exitDx=0;exitDy=0;entryX=0.5;entryY=0;entryDx=0;entryDy=0;" edge="1" parent="WIyWlLk6GJQsqaUBKTNV-1" source="4GM5hG-r4nrvfTbwzaOd-1" target="4GM5hG-r4nrvfTbwzaOd-3">
          <mxGeometry relative="1" as="geometry" />
        </mxCell>
        <mxCell id="4GM5hG-r4nrvfTbwzaOd-1" value="new array [num]" style="rounded=0;whiteSpace=wrap;html=1;" vertex="1" parent="WIyWlLk6GJQsqaUBKTNV-1">
          <mxGeometry x="180" y="140" width="120" height="40" as="geometry" />
        </mxCell>
        <mxCell id="4GM5hG-r4nrvfTbwzaOd-11" style="edgeStyle=orthogonalEdgeStyle;rounded=0;orthogonalLoop=1;jettySize=auto;html=1;exitX=0.5;exitY=1;exitDx=0;exitDy=0;entryX=0.5;entryY=0;entryDx=0;entryDy=0;" edge="1" parent="WIyWlLk6GJQsqaUBKTNV-1" source="4GM5hG-r4nrvfTbwzaOd-3" target="4GM5hG-r4nrvfTbwzaOd-8">
          <mxGeometry relative="1" as="geometry" />
        </mxCell>
        <mxCell id="4GM5hG-r4nrvfTbwzaOd-14" style="edgeStyle=orthogonalEdgeStyle;rounded=0;orthogonalLoop=1;jettySize=auto;html=1;exitX=1;exitY=0.5;exitDx=0;exitDy=0;entryX=1;entryY=0.5;entryDx=0;entryDy=0;" edge="1" parent="WIyWlLk6GJQsqaUBKTNV-1" source="4GM5hG-r4nrvfTbwzaOd-3" target="4GM5hG-r4nrvfTbwzaOd-12">
          <mxGeometry relative="1" as="geometry" />
        </mxCell>
        <mxCell id="4GM5hG-r4nrvfTbwzaOd-3" value="for (i = 0; i &amp;lt; array.Lenght; i++)" style="shape=hexagon;perimeter=hexagonPerimeter2;whiteSpace=wrap;html=1;fixedSize=1;" vertex="1" parent="WIyWlLk6GJQsqaUBKTNV-1">
          <mxGeometry x="145" y="210" width="190" height="40" as="geometry" />
        </mxCell>
        <mxCell id="4GM5hG-r4nrvfTbwzaOd-10" style="edgeStyle=orthogonalEdgeStyle;rounded=0;orthogonalLoop=1;jettySize=auto;html=1;exitX=0;exitY=0.5;exitDx=0;exitDy=0;entryX=0;entryY=0.5;entryDx=0;entryDy=0;" edge="1" parent="WIyWlLk6GJQsqaUBKTNV-1" source="4GM5hG-r4nrvfTbwzaOd-8" target="4GM5hG-r4nrvfTbwzaOd-3">
          <mxGeometry relative="1" as="geometry" />
        </mxCell>
        <mxCell id="4GM5hG-r4nrvfTbwzaOd-8" value="array [i] = user value input" style="rounded=0;whiteSpace=wrap;html=1;" vertex="1" parent="WIyWlLk6GJQsqaUBKTNV-1">
          <mxGeometry x="157.5" y="280" width="165" height="30" as="geometry" />
        </mxCell>
        <mxCell id="4GM5hG-r4nrvfTbwzaOd-16" value="" style="edgeStyle=orthogonalEdgeStyle;rounded=0;orthogonalLoop=1;jettySize=auto;html=1;" edge="1" parent="WIyWlLk6GJQsqaUBKTNV-1" source="4GM5hG-r4nrvfTbwzaOd-12" target="4GM5hG-r4nrvfTbwzaOd-15">
          <mxGeometry relative="1" as="geometry" />
        </mxCell>
        <mxCell id="4GM5hG-r4nrvfTbwzaOd-12" value="print array []" style="shape=document;whiteSpace=wrap;html=1;boundedLbl=1;" vertex="1" parent="WIyWlLk6GJQsqaUBKTNV-1">
          <mxGeometry x="180" y="340" width="120" height="50" as="geometry" />
        </mxCell>
        <mxCell id="4GM5hG-r4nrvfTbwzaOd-24" style="edgeStyle=orthogonalEdgeStyle;rounded=0;orthogonalLoop=1;jettySize=auto;html=1;exitX=0.5;exitY=1;exitDx=0;exitDy=0;entryX=0.5;entryY=0;entryDx=0;entryDy=0;" edge="1" parent="WIyWlLk6GJQsqaUBKTNV-1" source="4GM5hG-r4nrvfTbwzaOd-15" target="4GM5hG-r4nrvfTbwzaOd-22">
          <mxGeometry relative="1" as="geometry" />
        </mxCell>
        <mxCell id="4GM5hG-r4nrvfTbwzaOd-15" value="maxLenght = 3&lt;br&gt;n = 0" style="rounded=0;whiteSpace=wrap;html=1;" vertex="1" parent="WIyWlLk6GJQsqaUBKTNV-1">
          <mxGeometry x="180" y="420" width="120" height="40" as="geometry" />
        </mxCell>
        <mxCell id="4GM5hG-r4nrvfTbwzaOd-20" value="yes" style="text;html=1;align=center;verticalAlign=middle;resizable=0;points=[];autosize=1;strokeColor=none;fillColor=none;" vertex="1" parent="WIyWlLk6GJQsqaUBKTNV-1">
          <mxGeometry x="240" y="248" width="40" height="30" as="geometry" />
        </mxCell>
        <mxCell id="4GM5hG-r4nrvfTbwzaOd-21" value="no" style="text;html=1;align=center;verticalAlign=middle;resizable=0;points=[];autosize=1;strokeColor=none;fillColor=none;" vertex="1" parent="WIyWlLk6GJQsqaUBKTNV-1">
          <mxGeometry x="320" y="198" width="40" height="30" as="geometry" />
        </mxCell>
        <mxCell id="4GM5hG-r4nrvfTbwzaOd-30" style="edgeStyle=orthogonalEdgeStyle;rounded=0;orthogonalLoop=1;jettySize=auto;html=1;exitX=0.5;exitY=1;exitDx=0;exitDy=0;entryX=0.5;entryY=0;entryDx=0;entryDy=0;" edge="1" parent="WIyWlLk6GJQsqaUBKTNV-1" source="4GM5hG-r4nrvfTbwzaOd-22" target="4GM5hG-r4nrvfTbwzaOd-26">
          <mxGeometry relative="1" as="geometry" />
        </mxCell>
        <mxCell id="4GM5hG-r4nrvfTbwzaOd-40" style="edgeStyle=orthogonalEdgeStyle;rounded=0;orthogonalLoop=1;jettySize=auto;html=1;exitX=1;exitY=0.5;exitDx=0;exitDy=0;entryX=1;entryY=0.5;entryDx=0;entryDy=0;" edge="1" parent="WIyWlLk6GJQsqaUBKTNV-1" source="4GM5hG-r4nrvfTbwzaOd-22" target="4GM5hG-r4nrvfTbwzaOd-38">
          <mxGeometry relative="1" as="geometry">
            <Array as="points">
              <mxPoint x="370" y="510" />
              <mxPoint x="370" y="745" />
            </Array>
          </mxGeometry>
        </mxCell>
        <mxCell id="4GM5hG-r4nrvfTbwzaOd-22" value="for (i = 0; i &amp;lt; array.Lenght; i++)" style="shape=hexagon;perimeter=hexagonPerimeter2;whiteSpace=wrap;html=1;fixedSize=1;" vertex="1" parent="WIyWlLk6GJQsqaUBKTNV-1">
          <mxGeometry x="145" y="490" width="190" height="40" as="geometry" />
        </mxCell>
        <mxCell id="4GM5hG-r4nrvfTbwzaOd-25" value="yes" style="text;html=1;align=center;verticalAlign=middle;resizable=0;points=[];autosize=1;strokeColor=none;fillColor=none;" vertex="1" parent="WIyWlLk6GJQsqaUBKTNV-1">
          <mxGeometry x="240" y="458" width="40" height="30" as="geometry" />
        </mxCell>
        <mxCell id="4GM5hG-r4nrvfTbwzaOd-28" style="edgeStyle=orthogonalEdgeStyle;rounded=0;orthogonalLoop=1;jettySize=auto;html=1;exitX=0.5;exitY=1;exitDx=0;exitDy=0;entryX=0.5;entryY=0;entryDx=0;entryDy=0;" edge="1" parent="WIyWlLk6GJQsqaUBKTNV-1" source="4GM5hG-r4nrvfTbwzaOd-26" target="4GM5hG-r4nrvfTbwzaOd-27">
          <mxGeometry relative="1" as="geometry" />
        </mxCell>
        <mxCell id="4GM5hG-r4nrvfTbwzaOd-35" style="edgeStyle=orthogonalEdgeStyle;rounded=0;orthogonalLoop=1;jettySize=auto;html=1;exitX=0;exitY=0.5;exitDx=0;exitDy=0;" edge="1" parent="WIyWlLk6GJQsqaUBKTNV-1" source="4GM5hG-r4nrvfTbwzaOd-26">
          <mxGeometry relative="1" as="geometry">
            <mxPoint x="110" y="600" as="targetPoint" />
          </mxGeometry>
        </mxCell>
        <mxCell id="4GM5hG-r4nrvfTbwzaOd-26" value="array[i].Lenght &amp;lt;= maxLenght" style="rhombus;whiteSpace=wrap;html=1;" vertex="1" parent="WIyWlLk6GJQsqaUBKTNV-1">
          <mxGeometry x="145" y="560" width="190" height="80" as="geometry" />
        </mxCell>
        <mxCell id="4GM5hG-r4nrvfTbwzaOd-34" style="edgeStyle=orthogonalEdgeStyle;rounded=0;orthogonalLoop=1;jettySize=auto;html=1;exitX=0;exitY=0.5;exitDx=0;exitDy=0;entryX=0;entryY=0.5;entryDx=0;entryDy=0;" edge="1" parent="WIyWlLk6GJQsqaUBKTNV-1" source="4GM5hG-r4nrvfTbwzaOd-27" target="4GM5hG-r4nrvfTbwzaOd-22">
          <mxGeometry relative="1" as="geometry">
            <Array as="points">
              <mxPoint x="110" y="685" />
              <mxPoint x="110" y="510" />
            </Array>
          </mxGeometry>
        </mxCell>
        <mxCell id="4GM5hG-r4nrvfTbwzaOd-27" value="n++" style="rounded=0;whiteSpace=wrap;html=1;" vertex="1" parent="WIyWlLk6GJQsqaUBKTNV-1">
          <mxGeometry x="180" y="670" width="120" height="30" as="geometry" />
        </mxCell>
        <mxCell id="4GM5hG-r4nrvfTbwzaOd-29" value="yes" style="text;html=1;align=center;verticalAlign=middle;resizable=0;points=[];autosize=1;strokeColor=none;fillColor=none;" vertex="1" parent="WIyWlLk6GJQsqaUBKTNV-1">
          <mxGeometry x="240" y="640" width="40" height="30" as="geometry" />
        </mxCell>
        <mxCell id="4GM5hG-r4nrvfTbwzaOd-31" value="yes" style="text;html=1;align=center;verticalAlign=middle;resizable=0;points=[];autosize=1;strokeColor=none;fillColor=none;" vertex="1" parent="WIyWlLk6GJQsqaUBKTNV-1">
          <mxGeometry x="240" y="530" width="40" height="30" as="geometry" />
        </mxCell>
        <mxCell id="4GM5hG-r4nrvfTbwzaOd-36" value="no" style="text;html=1;align=center;verticalAlign=middle;resizable=0;points=[];autosize=1;strokeColor=none;fillColor=none;" vertex="1" parent="WIyWlLk6GJQsqaUBKTNV-1">
          <mxGeometry x="117.5" y="568" width="40" height="30" as="geometry" />
        </mxCell>
        <mxCell id="4GM5hG-r4nrvfTbwzaOd-54" style="edgeStyle=orthogonalEdgeStyle;rounded=0;orthogonalLoop=1;jettySize=auto;html=1;exitX=0.5;exitY=1;exitDx=0;exitDy=0;entryX=0.5;entryY=0;entryDx=0;entryDy=0;" edge="1" parent="WIyWlLk6GJQsqaUBKTNV-1" source="4GM5hG-r4nrvfTbwzaOd-38" target="4GM5hG-r4nrvfTbwzaOd-44">
          <mxGeometry relative="1" as="geometry" />
        </mxCell>
        <mxCell id="4GM5hG-r4nrvfTbwzaOd-38" value="new result [n]&lt;br&gt;j = 0" style="rounded=0;whiteSpace=wrap;html=1;" vertex="1" parent="WIyWlLk6GJQsqaUBKTNV-1">
          <mxGeometry x="180" y="730" width="120" height="40" as="geometry" />
        </mxCell>
        <mxCell id="4GM5hG-r4nrvfTbwzaOd-41" value="no" style="text;html=1;align=center;verticalAlign=middle;resizable=0;points=[];autosize=1;strokeColor=none;fillColor=none;" vertex="1" parent="WIyWlLk6GJQsqaUBKTNV-1">
          <mxGeometry x="330" y="480" width="40" height="30" as="geometry" />
        </mxCell>
        <mxCell id="4GM5hG-r4nrvfTbwzaOd-42" style="edgeStyle=orthogonalEdgeStyle;rounded=0;orthogonalLoop=1;jettySize=auto;html=1;exitX=0.5;exitY=1;exitDx=0;exitDy=0;entryX=0.5;entryY=0;entryDx=0;entryDy=0;" edge="1" parent="WIyWlLk6GJQsqaUBKTNV-1" source="4GM5hG-r4nrvfTbwzaOd-44" target="4GM5hG-r4nrvfTbwzaOd-47">
          <mxGeometry relative="1" as="geometry" />
        </mxCell>
        <mxCell id="4GM5hG-r4nrvfTbwzaOd-43" style="edgeStyle=orthogonalEdgeStyle;rounded=0;orthogonalLoop=1;jettySize=auto;html=1;exitX=1;exitY=0.5;exitDx=0;exitDy=0;entryX=1;entryY=0.5;entryDx=0;entryDy=0;" edge="1" parent="WIyWlLk6GJQsqaUBKTNV-1" source="4GM5hG-r4nrvfTbwzaOd-44" target="4GM5hG-r4nrvfTbwzaOd-57">
          <mxGeometry relative="1" as="geometry">
            <Array as="points">
              <mxPoint x="370" y="820" />
              <mxPoint x="370" y="1070" />
              <mxPoint x="300" y="1070" />
            </Array>
            <mxPoint x="300" y="1055" as="targetPoint" />
          </mxGeometry>
        </mxCell>
        <mxCell id="4GM5hG-r4nrvfTbwzaOd-44" value="for (i = 0; i &amp;lt; array.Lenght; i++)" style="shape=hexagon;perimeter=hexagonPerimeter2;whiteSpace=wrap;html=1;fixedSize=1;" vertex="1" parent="WIyWlLk6GJQsqaUBKTNV-1">
          <mxGeometry x="145" y="800" width="190" height="40" as="geometry" />
        </mxCell>
        <mxCell id="4GM5hG-r4nrvfTbwzaOd-45" style="edgeStyle=orthogonalEdgeStyle;rounded=0;orthogonalLoop=1;jettySize=auto;html=1;exitX=0.5;exitY=1;exitDx=0;exitDy=0;entryX=0.5;entryY=0;entryDx=0;entryDy=0;" edge="1" parent="WIyWlLk6GJQsqaUBKTNV-1" source="4GM5hG-r4nrvfTbwzaOd-47" target="4GM5hG-r4nrvfTbwzaOd-49">
          <mxGeometry relative="1" as="geometry" />
        </mxCell>
        <mxCell id="4GM5hG-r4nrvfTbwzaOd-46" style="edgeStyle=orthogonalEdgeStyle;rounded=0;orthogonalLoop=1;jettySize=auto;html=1;exitX=0;exitY=0.5;exitDx=0;exitDy=0;" edge="1" parent="WIyWlLk6GJQsqaUBKTNV-1" source="4GM5hG-r4nrvfTbwzaOd-47">
          <mxGeometry relative="1" as="geometry">
            <mxPoint x="110" y="910" as="targetPoint" />
          </mxGeometry>
        </mxCell>
        <mxCell id="4GM5hG-r4nrvfTbwzaOd-47" value="array[i].Lenght &amp;lt;= maxLenght" style="rhombus;whiteSpace=wrap;html=1;" vertex="1" parent="WIyWlLk6GJQsqaUBKTNV-1">
          <mxGeometry x="145" y="870" width="190" height="80" as="geometry" />
        </mxCell>
        <mxCell id="4GM5hG-r4nrvfTbwzaOd-48" style="edgeStyle=orthogonalEdgeStyle;rounded=0;orthogonalLoop=1;jettySize=auto;html=1;exitX=0;exitY=0.5;exitDx=0;exitDy=0;entryX=0;entryY=0.5;entryDx=0;entryDy=0;" edge="1" parent="WIyWlLk6GJQsqaUBKTNV-1" source="4GM5hG-r4nrvfTbwzaOd-49" target="4GM5hG-r4nrvfTbwzaOd-44">
          <mxGeometry relative="1" as="geometry">
            <Array as="points">
              <mxPoint x="110" y="995" />
              <mxPoint x="110" y="820" />
            </Array>
          </mxGeometry>
        </mxCell>
        <mxCell id="4GM5hG-r4nrvfTbwzaOd-49" value="result [j] = array [i]&lt;br&gt;j++" style="rounded=0;whiteSpace=wrap;html=1;" vertex="1" parent="WIyWlLk6GJQsqaUBKTNV-1">
          <mxGeometry x="180" y="980" width="120" height="40" as="geometry" />
        </mxCell>
        <mxCell id="4GM5hG-r4nrvfTbwzaOd-50" value="yes" style="text;html=1;align=center;verticalAlign=middle;resizable=0;points=[];autosize=1;strokeColor=none;fillColor=none;" vertex="1" parent="WIyWlLk6GJQsqaUBKTNV-1">
          <mxGeometry x="240" y="950" width="40" height="30" as="geometry" />
        </mxCell>
        <mxCell id="4GM5hG-r4nrvfTbwzaOd-51" value="yes" style="text;html=1;align=center;verticalAlign=middle;resizable=0;points=[];autosize=1;strokeColor=none;fillColor=none;" vertex="1" parent="WIyWlLk6GJQsqaUBKTNV-1">
          <mxGeometry x="240" y="840" width="40" height="30" as="geometry" />
        </mxCell>
        <mxCell id="4GM5hG-r4nrvfTbwzaOd-52" value="no" style="text;html=1;align=center;verticalAlign=middle;resizable=0;points=[];autosize=1;strokeColor=none;fillColor=none;" vertex="1" parent="WIyWlLk6GJQsqaUBKTNV-1">
          <mxGeometry x="117.5" y="878" width="40" height="30" as="geometry" />
        </mxCell>
        <mxCell id="4GM5hG-r4nrvfTbwzaOd-55" value="no" style="text;html=1;align=center;verticalAlign=middle;resizable=0;points=[];autosize=1;strokeColor=none;fillColor=none;" vertex="1" parent="WIyWlLk6GJQsqaUBKTNV-1">
          <mxGeometry x="330" y="790" width="40" height="30" as="geometry" />
        </mxCell>
        <mxCell id="4GM5hG-r4nrvfTbwzaOd-60" value="" style="edgeStyle=orthogonalEdgeStyle;rounded=0;orthogonalLoop=1;jettySize=auto;html=1;" edge="1" parent="WIyWlLk6GJQsqaUBKTNV-1" source="4GM5hG-r4nrvfTbwzaOd-57" target="4GM5hG-r4nrvfTbwzaOd-59">
          <mxGeometry relative="1" as="geometry" />
        </mxCell>
        <mxCell id="4GM5hG-r4nrvfTbwzaOd-57" value="print result []" style="shape=document;whiteSpace=wrap;html=1;boundedLbl=1;" vertex="1" parent="WIyWlLk6GJQsqaUBKTNV-1">
          <mxGeometry x="180" y="1050" width="120" height="50" as="geometry" />
        </mxCell>
        <mxCell id="4GM5hG-r4nrvfTbwzaOd-59" value="end" style="rounded=1;whiteSpace=wrap;html=1;fontSize=12;glass=0;strokeWidth=1;shadow=0;" vertex="1" parent="WIyWlLk6GJQsqaUBKTNV-1">
          <mxGeometry x="165" y="1129" width="150" height="40" as="geometry" />
        </mxCell>
      </root>
    </mxGraphModel>
  </diagram>
</mxfile>
